<?xml version="1.0" standalone="no"?>
<!DOCTYPE svg PUBLIC "-//W3C//DTD SVG 20010904//EN"
 "http://www.w3.org/TR/2001/REC-SVG-20010904/DTD/svg10.dtd">
<svg version="1.0" xmlns="http://www.w3.org/2000/svg"
 width="138.000000pt" height="118.000000pt" viewBox="0 0 138.000000 118.000000"
 preserveAspectRatio="xMidYMid meet">

<g transform="translate(0.000000,118.000000) scale(0.100000,-0.100000)"
fill="#000000" stroke="none">
<path d="M550 893 c0 -15 -2 -16 -10 -3 -8 13 -10 12 -10 -3 0 -12 6 -17 17
-15 19 4 31 38 14 38 -6 0 -11 -8 -11 -17z"/>
<path d="M254 841 c-9 -9 -3 -161 6 -161 6 0 10 31 10 73 l0 74 440 2 440 2 0
-75 c0 -44 4 -76 10 -76 6 0 10 33 10 80 l0 80 -302 1 c-167 1 -372 2 -456 2
-85 1 -156 0 -158 -2z"/>
<path d="M188 833 c-13 -3 -18 -15 -18 -44 0 -26 -4 -38 -11 -34 -6 4 -9 0 -7
-11 2 -14 -3 -19 -22 -20 -14 -1 -32 -2 -41 -3 -22 -2 -59 -39 -58 -59 0 -11
2 -12 6 -4 5 13 55 42 71 42 5 0 21 -9 36 -21 21 -17 24 -24 16 -40 -16 -30
14 -24 39 7 15 20 18 31 11 44 -13 24 -13 80 0 80 6 0 6 9 1 23 -4 12 -6 28
-4 35 3 6 3 11 1 11 -1 -1 -11 -3 -20 -6z"/>
<path d="M372 646 c-34 -69 -62 -127 -62 -130 0 -3 15 -6 33 -6 30 0 35 5 63
62 l31 63 32 -63 c29 -58 33 -62 66 -62 l35 0 -66 130 c-36 72 -67 130 -68
130 -1 0 -30 -56 -64 -124z"/>
<path d="M590 640 l0 -130 79 0 c97 0 138 23 161 88 13 37 13 47 0 84 -23 65
-64 88 -161 88 l-79 0 0 -130z m165 45 c32 -31 32 -59 0 -91 -20 -20 -34 -25
-63 -22 l-37 3 -3 54 c-2 29 -1 60 2 67 9 24 74 17 101 -11z"/>
<path d="M870 635 l0 -125 30 0 30 0 0 66 0 65 30 -21 30 -21 30 21 30 21 0
-65 0 -66 30 0 30 0 0 126 c0 138 4 134 -66 77 -23 -18 -45 -33 -51 -33 -5 0
-34 18 -63 40 -29 22 -55 40 -57 40 -2 0 -3 -56 -3 -125z"/>
<path d="M17 626 c-4 -10 -5 -21 -2 -24 9 -9 17 6 13 25 -3 17 -4 17 -11 -1z"/>
<path d="M250 424 c0 -74 2 -85 16 -80 9 3 216 6 460 6 l444 0 0 80 c0 47 -4
80 -10 80 -6 0 -10 -32 -10 -75 l0 -75 -440 0 -440 0 0 75 c0 43 -4 75 -10 75
-6 0 -10 -35 -10 -86z"/>
<path d="M306 464 c-4 -9 -1 -23 5 -30 15 -19 49 -18 49 1 0 8 -5 15 -11 15
-5 0 -7 -5 -3 -11 4 -7 1 -10 -7 -7 -24 8 -22 36 3 41 21 4 21 4 -3 6 -17 0
-29 -5 -33 -15z"/>
<path d="M432 450 c0 -19 2 -29 5 -22 3 9 9 10 17 2 10 -7 13 -3 14 20 0 17
-3 30 -8 30 -5 0 -7 -7 -4 -15 4 -8 1 -15 -4 -15 -6 0 -13 8 -15 18 -3 9 -5 1
-5 -18z"/>
<path d="M552 455 c-7 -14 -12 -27 -12 -28 0 -1 11 -2 25 -2 28 0 32 12 12 39
-12 17 -14 16 -25 -9z"/>
<path d="M661 453 c-1 -32 0 -32 19 -16 21 18 27 43 10 43 -5 0 -7 -7 -4 -15
4 -8 1 -15 -4 -15 -6 0 -13 8 -15 18 -3 9 -5 2 -6 -15z"/>
<path d="M768 474 c-3 -5 -2 -20 3 -34 4 -16 7 -19 8 -7 1 9 5 17 10 17 5 0
12 -8 14 -17 3 -10 5 -2 6 17 0 26 -2 31 -9 20 -8 -12 -11 -13 -19 -1 -5 7
-11 9 -13 5z"/>
<path d="M882 450 c0 -19 2 -27 5 -17 2 9 2 25 0 35 -3 9 -5 1 -5 -18z"/>
<path d="M967 473 c-21 -21 2 -54 36 -52 7 0 2 4 -10 9 -13 5 -23 16 -23 24 0
8 10 17 23 19 20 4 20 4 1 6 -11 0 -24 -2 -27 -6z"/>
<path d="M1080 474 c0 -6 6 -16 12 -22 10 -10 10 -15 -2 -22 -13 -8 -12 -10 3
-10 9 0 17 6 17 13 -1 14 -30 55 -30 41z"/>
<path d="M62 336 c2 -14 12 -22 28 -24 14 -2 29 -8 35 -13 11 -11 45 -12 45
-1 0 4 -25 19 -56 33 -54 25 -55 25 -52 5z"/>
</g>
</svg>
